<svg xmlns="http://www.w3.org/2000/svg" width="22" height="22" viewBox="0 0 22 22">
  <g id="attachment-icon" opacity="0.3">
    <path id="Path_142" data-name="Path 142" d="M0,0H22V22H0Z" fill="none"/>
    <path id="Path_143" data-name="Path 143" d="M2,11.973A4.875,4.875,0,0,1,6.776,7h9.118a3.546,3.546,0,0,1,3.474,3.616,3.546,3.546,0,0,1-3.474,3.616H8.513a2.262,2.262,0,0,1,0-4.521h6.513v1.808H8.435c-.478,0-.478.9,0,.9h7.46a1.81,1.81,0,0,0,0-3.616H6.776a3.167,3.167,0,0,0,0,6.329h8.25v1.808H6.776A4.875,4.875,0,0,1,2,11.973Z" transform="translate(0.316 -0.973)"/>
  </g>
</svg>