<svg xmlns="http://www.w3.org/2000/svg" width="14.526" height="10.19" viewBox="0 0 14.526 10.19">
  <g id="class_builder" transform="translate(-23.01 -14.239)">
    <path id="Path_132" data-name="Path 132" d="M527.464,364.508a.268.268,0,0,1-.2-.087l-1.887-2.006a.307.307,0,0,1-.081-.211.3.3,0,0,1,.088-.208l5.857-5.857a.237.237,0,0,1,.06-.045.907.907,0,0,1,1.071.008,8.064,8.064,0,0,1,1.333,1.49s0,0,0,0a.881.881,0,0,1-.17,1.041l-5.885,5.794A.285.285,0,0,1,527.464,364.508Zm-1.49-2.292,1.5,1.589,5.656-5.568c.1-.138.148-.261.107-.33a7.465,7.465,0,0,0-1.211-1.346c-.12-.1-.333-.016-.429.036Z" transform="translate(-496.276 -340.902)" fill="#6f7782"/>
    <path id="Path_133" data-name="Path 133" d="M472.864,662.511a.268.268,0,0,1-.208-.1.306.306,0,0,1-.054-.3l.985-2.828a.275.275,0,0,1,.357-.174.3.3,0,0,1,.165.377l-.8,2.308,2.286-.6a.275.275,0,0,1,.337.213.3.3,0,0,1-.2.356l-2.795.739A.2.2,0,0,1,472.864,662.511Z" transform="translate(-444.547 -638.081)" fill="#6f7782"/>
    <path id="Path_135" data-name="Path 135" d="M213.172,316.9a.589.589,0,0,1-.573.6h-8.026a.589.589,0,0,1-.573-.6h0a.589.589,0,0,1,.573-.6H212.6a.591.591,0,0,1,.573.6Z" transform="translate(-180.99 -302.061)" fill="#6f7782"/>
    <path id="Path_136" data-name="Path 136" d="M212.152,440.009h-6.879a.592.592,0,0,1-.573-.6h0a.592.592,0,0,1,.573-.6h6.879a.592.592,0,0,1,.573.6h0A.592.592,0,0,1,212.152,440.009Z" transform="translate(-181.677 -422.14)" fill="#6f7782"/>
    <path id="Path_137" data-name="Path 137" d="M208.586,623.1a.589.589,0,0,1-.573.6h-3.44a.589.589,0,0,1-.573-.6h0a.589.589,0,0,1,.573-.6h3.44a.591.591,0,0,1,.573.6Z" transform="translate(-180.99 -602.21)" fill="#6f7782"/>
  </g>
</svg>
