<svg xmlns="http://www.w3.org/2000/svg" width="31.472" height="22.079" viewBox="0 0 31.472 22.079">
  <g id="class_builder" transform="translate(0 0)">
    <path id="Path_132" data-name="Path 132" d="M529.988,374.521a.58.58,0,0,1-.426-.188l-4.088-4.346a.666.666,0,0,1-.174-.458.653.653,0,0,1,.19-.45l12.69-12.69a.513.513,0,0,1,.13-.1,1.965,1.965,0,0,1,2.32.017,17.473,17.473,0,0,1,2.888,3.228,0,0,0,0,0,0,0,1.909,1.909,0,0,1-.369,2.256L530.4,374.35A.616.616,0,0,1,529.988,374.521Zm-3.228-4.966L530.009,373l12.256-12.065c.223-.3.32-.565.232-.715a16.179,16.179,0,0,0-2.624-2.916c-.26-.223-.722-.034-.929.077Z" transform="translate(-512.269 -354.228)" fill="#27bf81"/>
    <path id="Path_133" data-name="Path 133" d="M473.189,666.5a.579.579,0,0,1-.45-.214.662.662,0,0,1-.118-.646l2.133-6.127a.6.6,0,0,1,.775-.377.648.648,0,0,1,.357.818l-1.74,5,4.952-1.31a.6.6,0,0,1,.73.462.64.64,0,0,1-.438.771l-6.055,1.6A.426.426,0,0,1,473.189,666.5Z" transform="translate(-461.692 -644.418)" fill="#27bf81"/>
    <path id="Path_135" data-name="Path 135" d="M223.873,317.61a1.277,1.277,0,0,1-1.241,1.31H205.241A1.277,1.277,0,0,1,204,317.61h0a1.277,1.277,0,0,1,1.241-1.31h17.391a1.28,1.28,0,0,1,1.241,1.31Z" transform="translate(-204 -316.3)" fill="#27bf81"/>
    <path id="Path_136" data-name="Path 136" d="M220.845,441.42h-14.9a1.282,1.282,0,0,1-1.241-1.31h0a1.282,1.282,0,0,1,1.241-1.31h14.9a1.282,1.282,0,0,1,1.241,1.31h0A1.282,1.282,0,0,1,220.845,441.42Z" transform="translate(-204.672 -433.555)" fill="#27bf81"/>
    <path id="Path_137" data-name="Path 137" d="M213.936,623.81a1.277,1.277,0,0,1-1.241,1.31h-7.454A1.277,1.277,0,0,1,204,623.81h0a1.277,1.277,0,0,1,1.241-1.31H212.7a1.279,1.279,0,0,1,1.241,1.31Z" transform="translate(-204 -609.391)" fill="#27bf81"/>
  </g>
</svg>
