<svg xmlns="http://www.w3.org/2000/svg" width="18" height="18" viewBox="0 0 18 18">
  <path id="class_builder_icon" d="M16,18H2a2,2,0,0,1-2-2V2A2,2,0,0,1,2,0H16a2,2,0,0,1,2,2V16A2,2,0,0,1,16,18ZM14.6,4.844a1.183,1.183,0,0,0-.577.17.251.251,0,0,0-.06.045L8.125,10.893a.29.29,0,0,0-.1.134l-.985,2.828a.308.308,0,0,0,.055.3.265.265,0,0,0,.208.1.2.2,0,0,0,.067-.01l2.794-.739a.283.283,0,0,0,.167-.127c.011-.008.023-.017.033-.027l5.885-5.794a.881.881,0,0,0,.17-1.041,8.089,8.089,0,0,0-1.335-1.491A.743.743,0,0,0,14.6,4.844ZM2.573,10.111a.606.606,0,0,0,0,1.21h3.44a.606.606,0,0,0,0-1.21Zm.013-3.63a.606.606,0,0,0,0,1.21H9.464a.606.606,0,0,0,0-1.21Zm-.013-2.42a.605.605,0,0,0,0,1.209H10.6a.605.605,0,0,0,0-1.209Zm5.175,9.476v0L8.4,11.661l1.283,1.365-1.935.511Zm2.439-.814h0l-1.5-1.588,5.623-5.621a.672.672,0,0,1,.282-.083.221.221,0,0,1,.147.048,7.446,7.446,0,0,1,1.211,1.345c.039.066,0,.186-.107.33l-5.656,5.568Z" fill="#cbd4db"/>
</svg>
