<svg id="import" xmlns="http://www.w3.org/2000/svg" width="18" height="18" viewBox="0 0 18 18">
  <path id="Path_138" data-name="Path 138" d="M11.2,11.238V6.456a1.028,1.028,0,0,1,.956-.956.937.937,0,0,1,.956.9v4.894l.225-.225L15.309,9.1a.97.97,0,0,1,1.35-.056.943.943,0,0,1,.113,1.406c-.338.394-.675.731-1.013,1.069l-1.35,1.35c-.562.563-1.181,1.125-1.744,1.688a.713.713,0,0,1-1.012,0c-.731-.675-1.406-1.406-2.137-2.081-.45-.45-.956-.9-1.406-1.35a6.475,6.475,0,0,1-.788-.956.866.866,0,0,1,.338-1.125A.931.931,0,0,1,8.84,9.1c.675.619,1.294,1.294,1.969,1.969a1.227,1.227,0,0,1,.225.281C11.09,11.294,11.147,11.238,11.2,11.238Z" transform="translate(-3.159 -2.406)" fill="#fff"/>
  <path id="Path_139" data-name="Path 139" d="M10.313,22.956H5.025A1.876,1.876,0,0,1,3.169,21.55.907.907,0,0,1,3,21.044V19.188a.758.758,0,0,1,.731-.788.745.745,0,0,1,.731.731v1.463a.8.8,0,0,0,.844.844H15.375a.8.8,0,0,0,.844-.844V19.131a.709.709,0,0,1,.731-.731.758.758,0,0,1,.731.788v1.8A1.933,1.933,0,0,1,16.05,22.9c-.169,0-.281.056-.45.056Z" transform="translate(-1.313 -8.05)" fill="#fff"/>
  <rect id="Rectangle_16818" data-name="Rectangle 16818" width="18" height="18" fill="none"/>
</svg>
