<svg id="standards-and-skils" xmlns="http://www.w3.org/2000/svg" width="19.513" height="18.233" viewBox="0 0 19.513 18.233">
  <path id="Path_213" data-name="Path 213" d="M26.272,19.523a.683.683,0,0,0-.864-.511c-.36.073-.576,0-.576-.073-.072-.073,0-.292.288-.583a.784.784,0,0,0,0-1.021,4.717,4.717,0,0,0-2.088-1.24.74.74,0,0,0-.864.511c-.072.365-.288.511-.36.511s-.216-.146-.36-.511a.781.781,0,0,0-.864-.511,4.718,4.718,0,0,0-2.088,1.24.711.711,0,0,0,0,1.021.792.792,0,0,1,.288.583c0,.073-.216.146-.576.073a.74.74,0,0,0-.864.511,8.222,8.222,0,0,0-.144,1.24A8.222,8.222,0,0,0,17.344,22a.683.683,0,0,0,.864.511c.36-.073.576,0,.576.073.072.073,0,.292-.288.583a.784.784,0,0,0,0,1.021,4.718,4.718,0,0,0,2.088,1.24.74.74,0,0,0,.864-.511c.072-.365.288-.511.36-.511s.216.146.36.511a.716.716,0,0,0,.72.511H23.1a4.718,4.718,0,0,0,2.088-1.24.711.711,0,0,0,0-1.021.792.792,0,0,1-.288-.583c0-.073.216-.146.576-.073A.74.74,0,0,0,26.344,22a8.221,8.221,0,0,0,.144-1.24A9.026,9.026,0,0,0,26.272,19.523Zm-4.536,3.063a1.823,1.823,0,1,1,1.8-1.823A1.794,1.794,0,0,1,21.736,22.586Z" transform="translate(-6.976 -7.27)" fill="#6f7782"/>
  <path id="Path_214" data-name="Path 214" d="M11.64,17.493a6.155,6.155,0,0,1,6.12-6.2,6.3,6.3,0,0,1,3.96,1.459V7.647A3.588,3.588,0,0,0,18.121,4H6.6A3.588,3.588,0,0,0,3,7.647V21.5a.7.7,0,0,0,.432.656.429.429,0,0,0,.288.073,1.322,1.322,0,0,0,.5-.146,17.445,17.445,0,0,1,7.488-3.792A3.029,3.029,0,0,1,11.64,17.493ZM5.759,9.105H13.08a.729.729,0,0,1,0,1.459H5.759a.729.729,0,0,1,0-1.459Zm5.161,4.376H5.759a.729.729,0,0,1,0-1.459H10.92a.729.729,0,0,1,0,1.459Z" transform="translate(-3 -4)" fill="#6f7782"/>
</svg>
