<svg id="upload-icon" xmlns="http://www.w3.org/2000/svg" width="22" height="22" viewBox="0 0 22 22">
  <path id="Path_140" data-name="Path 140" d="M13.175,9.331v5.156a1.073,1.073,0,0,1-.959,1.031.973.973,0,0,1-.959-.971V9.271l-.226.243L9.056,11.636A.925.925,0,0,1,7.7,11.7a1.128,1.128,0,0,1-.169-1.516c.339-.425.677-.789,1.016-1.153L9.9,7.572c.564-.607,1.185-1.213,1.749-1.82a.681.681,0,0,1,1.016,0C13.4,6.48,14.078,7.269,14.811,8c.451.485.959.971,1.411,1.456a6.9,6.9,0,0,1,.79,1.031.973.973,0,0,1-.339,1.213.885.885,0,0,1-1.185-.061c-.677-.667-1.3-1.4-1.975-2.123a1.31,1.31,0,0,1-.226-.3A.126.126,0,0,1,13.175,9.331Z" transform="translate(-1.25 0.031)" fill="#272727"/>
  <path id="Path_141" data-name="Path 141" d="M11.523,23.969H5.36A2.205,2.205,0,0,1,3.2,22.25a1.146,1.146,0,0,1-.2-.619V19.363a.909.909,0,0,1,.852-.963.89.89,0,0,1,.852.894v1.788a.952.952,0,0,0,.983,1.031H17.423a.952.952,0,0,0,.983-1.031V19.294a.847.847,0,0,1,.852-.894.909.909,0,0,1,.852.963v2.2a2.332,2.332,0,0,1-1.9,2.337c-.2,0-.328.069-.524.069Z" transform="translate(-0.556 -5.635)" fill="#272727"/>
  <rect id="Rectangle_16819" data-name="Rectangle 16819" width="22" height="22" fill="none"/>
</svg>
