<svg id="assignment-24px-outline" xmlns="http://www.w3.org/2000/svg" width="26" height="26" viewBox="0 0 26 26">
  <rect id="bg" width="26" height="26" rx="3" fill="#272727" opacity="0"/>
  <path id="Path_68" data-name="Path 68" d="M6.556,13.6h6.222v1.8H6.556Zm0-3.6h8.889v1.8H6.556Zm0-3.6h8.889V8.2H6.556ZM17.222,2.8H13.507a2.645,2.645,0,0,0-5.013,0H4.778a1.539,1.539,0,0,0-.356.036,1.778,1.778,0,0,0-.9.5,1.8,1.8,0,0,0-.382.576A1.752,1.752,0,0,0,3,4.6V17.2a1.866,1.866,0,0,0,.142.7,1.909,1.909,0,0,0,.382.576,1.778,1.778,0,0,0,.9.495A2.279,2.279,0,0,0,4.778,19H17.222A1.794,1.794,0,0,0,19,17.2V4.6A1.794,1.794,0,0,0,17.222,2.8ZM11,2.575a.675.675,0,1,1-.667.675A.676.676,0,0,1,11,2.575ZM17.222,17.2H4.778V4.6H17.222Z" transform="translate(2 3)" fill="#272727"/>
</svg>
