<svg id="btn-icon--ternary" xmlns="http://www.w3.org/2000/svg" width="26" height="26" viewBox="0 0 26 26">
  <rect id="base" width="26" height="26" rx="4" fill="rgba(221,221,221,0)"/>
  <g id="icon-question-answer" transform="translate(4 4)">
    <rect id="placeholder" width="18" height="18" fill="rgba(136,136,136,0)"/>
    <g id="icon" transform="translate(46 103.809)">
      <path id="Path_348" data-name="Path 348" d="M309.9,390.1l-6.5,6.5-3.3-3.2,1.2-1.2,2.1,2.1,5.4-5.3Z" transform="translate(-342.2 -488.809)"/>
      <path id="Path_13" d="M312.4,387.6a.349.349,0,0,1,.2.1v10.2a.349.349,0,0,1-.2.1H299.2l-.5.4-.9.9V387.7a.349.349,0,0,1,.2-.1Zm0-1.6H298a1.774,1.774,0,0,0-1.8,1.7V403l3.6-3.4h12.6a1.774,1.774,0,0,0,1.8-1.7V387.7a1.71,1.71,0,0,0-1.8-1.7Z" transform="translate(-342.2 -488.809)"/>
    </g>
  </g>
</svg>
