<svg id="project" xmlns="http://www.w3.org/2000/svg" width="20" height="20" viewBox="0 0 20 20">
  <path id="Path_260" data-name="Path 260" d="M20.72,20H.72V0h20ZM7.4,1.667c-.8,0-1.458,0-2.113,0a2.582,2.582,0,0,0-2.9,2.877q-.016,4.581,0,9.16c0,1.979.963,2.956,2.919,2.958q6.453.012,12.908,0a7.339,7.339,0,0,0,.754-.069V3.292H7.4C7.4,2.748,7.4,2.273,7.4,1.667Z" transform="translate(-0.72)" fill="none"/>
  <path id="Path_261" data-name="Path 261" d="M13.923,7.993V9.686H25.964V23.529c-.236.022-.509.069-.785.072q-6.715.007-13.433,0c-2.034,0-3.033-1.019-3.037-3.079q-.01-4.767,0-9.533a2.69,2.69,0,0,1,3.016-3C12.406,7.989,13.086,7.993,13.923,7.993Zm10.35,3.545H13.856v8.6c-.763,0-1.411.009-2.057,0s-1.329.035-1.32.88.7.861,1.342.859q4.816-.01,9.63,0h2.821C24.273,18.369,24.273,14.991,24.273,11.538ZM10.444,18.6l1.672-.291V9.766c-.854-.076-1.659-.132-1.665,1C10.433,13.357,10.444,15.941,10.444,18.6Z" transform="translate(-7.377 -6.631)"/>
  <path id="Path_264" data-name="Path 264" d="M46.054,39.6c-.4-.366-.692-.629-1.08-.98-.72.791-1.431,1.578-2.185,2.406-.726-.689-1.266-1.2-1.856-1.76-.366.319-.709.62-1.136.991-.336-.405-.666-.8-1.047-1.268L41.033,36.9,42.462,38.8c.492-.728.767-1.134,1.086-1.6-.113-.137-.375-.46-.72-.88h3.226Z" transform="translate(-30.91 -28.818)"/>
</svg>
