<svg id="visibility" xmlns="http://www.w3.org/2000/svg" width="18" height="18" viewBox="0 0 18 18">
  <g id="visibility_off-24px" opacity="0.3">
    <path id="Path_341" data-name="Path 341" d="M0,0H18V18H0ZM0,0H18V18H0ZM0,0H18V18H0ZM0,0H18V18H0Z" fill="none"/>
    <path id="Path_342" data-name="Path 342" d="M9,5.737a3.535,3.535,0,0,1,3.636,3.421,3.151,3.151,0,0,1-.262,1.252l2.123,2a8.124,8.124,0,0,0,2.494-3.25,8.606,8.606,0,0,0-8-5.132A8.945,8.945,0,0,0,6.1,4.505L7.668,5.983A3.723,3.723,0,0,1,9,5.737ZM1.727,3.869l1.658,1.56.334.315A8.141,8.141,0,0,0,1,9.158a8.606,8.606,0,0,0,8,5.132,9.035,9.035,0,0,0,3.185-.575l.305.287,2.131,2,.923-.869L2.651,3ZM5.748,7.653,6.875,8.713a1.822,1.822,0,0,0-.058.445A2.117,2.117,0,0,0,9,11.211a2.174,2.174,0,0,0,.473-.055L10.6,12.216a3.789,3.789,0,0,1-1.6.363A3.535,3.535,0,0,1,5.363,9.158a3.23,3.23,0,0,1,.385-1.505Zm3.134-.534,2.291,2.155.015-.109A2.117,2.117,0,0,0,9.006,7.112Z"/>
  </g>
</svg>
