<svg xmlns="http://www.w3.org/2000/svg" width="18.576" height="14.354" viewBox="0 0 18.576 14.354">
  <g id="Group_148" data-name="Group 148" transform="translate(-1 -3)">
    <g id="Group_147" data-name="Group 147" transform="translate(1 3)">
      <path id="Path_113" data-name="Path 113" d="M17.887,8a1.59,1.59,0,0,0-1.63,1.957l-3,2.775a1.858,1.858,0,0,0-.878,0l-2.153-1.988A1.588,1.588,0,0,0,8.6,8.78a1.589,1.589,0,0,0-1.63,1.964l-3.85,3.547A1.671,1.671,0,0,0,1,15.8a1.633,1.633,0,0,0,1.689,1.559A1.59,1.59,0,0,0,4.318,15.4L8.16,11.843a1.858,1.858,0,0,0,.878,0l2.153,1.988a1.588,1.588,0,0,0,1.63,1.964,1.589,1.589,0,0,0,1.63-1.964l3.006-2.767a1.671,1.671,0,0,0,2.119-1.5A1.633,1.633,0,0,0,17.887,8Z" transform="translate(-1 -3)" fill="#fff"/>
      <path id="Path_114" data-name="Path 114" d="M15,9l.94-2.07L18,6l-2.06-.93L15,3l-.92,2.07L12,6l2.08.93Z" transform="translate(-3.354 -3)" fill="#fff"/>
      <path id="Path_115" data-name="Path 115" d="M3.5,11,4,9l2-.5L4,8,3.5,6,3,8,1,8.5,3,9Z" transform="translate(-1 -3.661)" fill="#fff"/>
    </g>
  </g>
</svg>
