<svg id="new-skill-icon" xmlns="http://www.w3.org/2000/svg" width="16.512" height="15.233" viewBox="0 0 16.512 15.233">
  <path id="Path_213" data-name="Path 213" d="M24.878,18.956a.578.578,0,0,0-.731-.427c-.3.061-.487,0-.487-.061-.061-.061,0-.244.244-.487a.649.649,0,0,0,0-.853,4,4,0,0,0-1.767-1.036.627.627,0,0,0-.731.427c-.061.3-.244.427-.3.427s-.183-.122-.3-.427a.662.662,0,0,0-.731-.427A4,4,0,0,0,18.3,17.128a.589.589,0,0,0,0,.853.658.658,0,0,1,.244.487c0,.061-.183.122-.487.061a.627.627,0,0,0-.731.427,6.785,6.785,0,0,0-.122,1.036,6.785,6.785,0,0,0,.122,1.036.578.578,0,0,0,.731.427c.3-.061.487,0,.487.061.061.061,0,.244-.244.487a.649.649,0,0,0,0,.853,4,4,0,0,0,1.767,1.036.627.627,0,0,0,.731-.427c.061-.3.244-.427.3-.427s.183.122.3.427a.605.605,0,0,0,.609.427H22.2a4,4,0,0,0,1.767-1.036.589.589,0,0,0,0-.853.658.658,0,0,1-.244-.487c0-.061.183-.122.487-.061a.627.627,0,0,0,.731-.427,6.785,6.785,0,0,0,.122-1.036A7.454,7.454,0,0,0,24.878,18.956Zm-3.839,2.559a1.523,1.523,0,1,1,1.523-1.523A1.509,1.509,0,0,1,21.039,21.516Z" transform="translate(-8.548 -8.72)" fill="#fff"/>
  <path id="Path_214" data-name="Path 214" d="M10.312,15.273a5.175,5.175,0,0,1,5.179-5.179,5.37,5.37,0,0,1,3.351,1.219V7.047A3.017,3.017,0,0,0,15.8,4H6.047A3.017,3.017,0,0,0,3,7.047V18.624a.586.586,0,0,0,.366.548.366.366,0,0,0,.244.061,1.13,1.13,0,0,0,.427-.122,14.834,14.834,0,0,1,6.337-3.168A2.5,2.5,0,0,1,10.312,15.273ZM5.335,8.265h6.2a.609.609,0,0,1,0,1.219h-6.2a.609.609,0,0,1,0-1.219ZM9.7,11.921H5.335a.609.609,0,0,1,0-1.219H9.7a.609.609,0,0,1,0,1.219Z" transform="translate(-3 -4)" fill="#fff"/>
</svg>
